<?xml version="1.0" encoding="UTF-8" standalone="no"?><!DOCTYPE svg PUBLIC "-//W3C//DTD SVG 1.1//EN" "http://www.w3.org/Graphics/SVG/1.1/DTD/svg11.dtd"><svg width="100%" height="100%" viewBox="0 0 1280 260" version="1.1" xmlns="http://www.w3.org/2000/svg" xmlns:xlink="http://www.w3.org/1999/xlink" xml:space="preserve" xmlns:serif="http://www.serif.com/" style="fill-rule:evenodd;clip-rule:evenodd;stroke-linejoin:round;stroke-miterlimit:2;"><g><g><path d="M485.791,115.321l6.04,-58.2l34.093,-1.726l-9.602,94.08c-0.791,8.128 -2.266,14.799 -4.423,20.014c-2.158,5.214 -4.801,9.332 -7.93,12.353c-3.129,3.021 -6.671,5.125 -10.627,6.312c-3.956,1.186 -8.2,1.78 -12.731,1.78c-2.878,0 -5.485,-0.234 -7.823,-0.701c-2.337,-0.468 -4.459,-1.079 -6.365,-1.835c-1.906,-0.755 -3.668,-1.6 -5.287,-2.535c-1.618,-0.935 -3.182,-1.87 -4.693,-2.805l5.179,-17.91c0.288,0.144 0.827,0.324 1.618,0.54c0.791,0.215 1.672,0.449 2.644,0.701c0.971,0.252 1.906,0.467 2.805,0.647c0.899,0.18 1.6,0.27 2.104,0.27c3.092,0 5.61,-1.277 7.552,-3.83c1.942,-2.554 3.272,-7.175 3.992,-13.864l0.932,-8.98c-0.95,0.813 -1.944,1.595 -2.982,2.345c-3.237,2.337 -6.797,4.207 -10.681,5.61c-3.884,1.402 -7.84,2.104 -11.868,2.104c-4.46,0 -8.254,-0.666 -11.383,-1.996c-3.128,-1.331 -5.718,-3.237 -7.768,-5.718c-2.05,-2.482 -3.542,-5.431 -4.477,-8.847c-0.935,-3.417 -1.403,-7.247 -1.403,-11.491c0,-2.014 0.09,-3.902 0.27,-5.664c0.18,-1.762 0.27,-3.65 0.27,-5.664l5.61,-53.406l33.985,-1.402l-6.473,60.958c0,1.079 0.09,2.103 0.27,3.074c0.18,0.971 0.503,1.835 0.971,2.59c0.467,0.755 1.115,1.348 1.942,1.78c0.827,0.432 1.852,0.647 3.075,0.647c1.438,0 2.859,-0.287 4.261,-0.863c1.403,-0.575 2.698,-1.33 3.884,-2.265c1.187,-0.935 2.194,-1.96 3.021,-3.075c0.827,-1.115 1.421,-2.212 1.78,-3.291l0.218,0.263Zm234.224,-5.334l9.498,-91.491l34.093,-2.805l-7.552,72.071l25.139,-32.259l30.532,1.726c-4.243,4.747 -8.541,9.602 -12.892,14.565c-4.352,4.963 -8.65,9.818 -12.893,14.565c1.51,1.942 2.643,4.226 3.398,6.851c0.755,2.626 1.367,5.341 1.834,8.146c0.468,2.805 0.953,5.592 1.457,8.361c0.503,2.77 1.241,5.251 2.212,7.445c0.971,2.194 2.301,3.974 3.992,5.34c1.69,1.367 3.974,2.05 6.851,2.05c1.582,0 3.021,-0.287 4.315,-0.863c1.295,-0.575 2.482,-1.312 3.561,-2.212c1.079,-0.899 1.996,-1.906 2.751,-3.02c0.755,-1.115 1.384,-2.248 1.888,-3.399l0.118,0.143c-0.007,-0.368 -0.01,-0.739 -0.01,-1.114c0,-4.675 0.341,-9.35 1.025,-14.026c0.683,-4.675 1.798,-9.134 3.344,-13.378c1.547,-4.244 3.525,-8.218 5.934,-11.922c2.41,-3.704 5.341,-6.905 8.793,-9.602c3.453,-2.697 7.445,-4.819 11.976,-6.366c4.532,-1.546 9.674,-2.319 15.428,-2.319c6.69,0 12.3,0.629 16.831,1.888c4.532,1.258 8.182,3.147 10.951,5.664c2.769,2.517 4.747,5.646 5.934,9.386c1.187,3.741 1.78,8.056 1.78,12.947c0,2.518 -0.791,4.855 -2.373,7.013c-1.583,2.158 -3.669,4.118 -6.258,5.88c-2.589,1.762 -5.574,3.363 -8.955,4.801c-3.38,1.439 -6.833,2.697 -10.357,3.776c-3.525,1.079 -7.013,1.96 -10.466,2.644c-3.452,0.683 -6.581,1.169 -9.386,1.456c-0.072,0.504 -0.126,0.971 -0.162,1.403c-0.036,0.431 -0.054,0.863 -0.054,1.294c0,2.518 0.396,4.676 1.187,6.474c0.791,1.798 1.852,3.273 3.183,4.423c1.33,1.151 2.895,1.996 4.693,2.536c1.798,0.539 3.704,0.809 5.718,0.809c4.244,0 8.092,-0.378 11.544,-1.133c3.453,-0.755 6.6,-1.69 9.441,-2.805c2.841,-1.115 5.43,-2.356 7.768,-3.722c1.955,-1.143 3.797,-2.236 5.526,-3.279c0.035,-0.641 0.081,-1.256 0.138,-1.846c0.144,-1.475 0.324,-2.967 0.54,-4.477l8.631,-84.263l33.122,-2.805l-3.452,33.446l12.946,0l-2.265,23.197l-12.947,0l-3.668,35.194c0,0.143 -0.018,0.341 -0.054,0.592c-0.036,0.251 -0.054,0.7 -0.054,1.346c0.359,1.794 1.204,3.462 2.535,5.005c1.331,1.542 3.039,2.313 5.125,2.313c4.244,0 8.182,-0.755 11.814,-2.265c3.632,-1.511 6.887,-3.417 9.764,-5.719c2.877,-2.301 7.93,20.337 2.427,23.371c-5.502,3.034 -11.526,5.418 -18.071,7.151c-6.545,1.734 -13.522,2.601 -20.931,2.601c-4.819,0 -8.865,-0.684 -12.137,-2.05c-3.273,-1.367 -5.916,-3.327 -7.93,-5.88c-1.312,-1.663 -2.379,-3.562 -3.202,-5.696c-3.169,2.473 -6.616,4.714 -10.339,6.721c-4.135,2.229 -8.667,4.046 -13.594,5.448c-4.927,1.403 -10.339,2.104 -16.237,2.104c-6.474,0 -12.462,-0.665 -17.964,-1.996c-5.502,-1.331 -10.267,-3.488 -14.295,-6.473c-3.553,-2.633 -6.434,-5.937 -8.644,-9.913c-0.423,0.655 -0.868,1.297 -1.336,1.929c-2.266,3.057 -4.855,5.7 -7.768,7.93c-2.913,2.229 -6.024,3.974 -9.333,5.232c-3.308,1.259 -6.617,1.888 -9.926,1.888c-5.97,0 -10.879,-1.078 -14.727,-3.236c-3.848,-2.158 -6.905,-4.945 -9.17,-8.362c-2.266,-3.416 -3.866,-7.264 -4.802,-11.544c-0.935,-4.28 -1.474,-8.577 -1.618,-12.893c0.216,-1.079 0.324,-2.158 0.324,-3.237l-11.437,13.271l-2.697,24.383l-34.093,0l2.248,-21.653c-2.659,4.949 -6.087,9.145 -10.286,12.59c-4.208,3.453 -9.135,6.114 -14.781,7.984c-5.646,1.87 -11.886,2.805 -18.719,2.805c-8.415,0 -15.158,-1.115 -20.229,-3.344c-5.071,-2.23 -8.955,-5.125 -11.652,-8.685c-1.122,-1.481 -2.085,-3.03 -2.889,-4.647c-0.184,0.237 -0.372,0.473 -0.564,0.709c-2.409,2.949 -5.233,5.592 -8.469,7.93c-3.237,2.337 -6.743,4.207 -10.52,5.61c-3.776,1.402 -7.534,2.104 -11.274,2.104c-12.012,0 -19.348,-4.748 -22.01,-14.242c-0.575,1.007 -1.15,1.942 -1.726,2.805c-0.575,0.863 -1.259,1.691 -2.05,2.482c-0.575,0.575 -1.438,1.384 -2.589,2.427c-1.151,1.043 -2.59,2.068 -4.316,3.075c-1.726,1.007 -3.758,1.87 -6.096,2.59c-2.337,0.719 -5.052,1.078 -8.145,1.078c-4.891,0 -9.099,-0.863 -12.623,-2.589c-3.525,-1.726 -6.42,-4.082 -8.686,-7.067c-2.265,-2.985 -3.938,-6.491 -5.016,-10.519c-1.079,-4.028 -1.619,-8.379 -1.619,-13.055c0,-1.151 0.036,-2.895 0.108,-5.232c0.072,-2.338 0.288,-5.017 0.647,-8.038c0.36,-3.021 0.864,-6.258 1.511,-9.71c0.647,-3.453 1.546,-6.905 2.697,-10.358c1.151,-3.452 2.589,-6.761 4.316,-9.926c1.726,-3.164 3.794,-5.97 6.203,-8.415c2.41,-2.446 5.233,-4.388 8.47,-5.826c3.236,-1.439 6.941,-2.158 11.112,-2.158c2.158,0 4.208,0.234 6.15,0.701c1.942,0.468 3.74,1.043 5.395,1.727c1.654,0.683 3.164,1.42 4.531,2.211c1.367,0.791 2.553,1.547 3.56,2.266l0.971,-8.415l33.339,1.51l-5.719,56.534c-0.143,1.223 -0.197,2.518 -0.161,3.885c0.036,1.366 0.233,2.607 0.593,3.722c0.36,1.115 0.971,2.032 1.834,2.751c0.863,0.719 2.05,1.079 3.56,1.079c1.439,0 2.86,-0.324 4.262,-0.971c1.403,-0.648 2.697,-1.457 3.884,-2.428c1.187,-0.971 2.194,-2.05 3.021,-3.236c0.772,-1.108 1.34,-2.168 1.705,-3.182c-0.022,-0.684 -0.033,-1.368 -0.033,-2.051c0,-2.014 0.09,-4.801 0.27,-8.362c0.18,-3.56 0.755,-7.462 1.726,-11.706c0.971,-4.243 2.464,-8.541 4.478,-12.893c2.014,-4.351 4.819,-8.289 8.415,-11.814c3.597,-3.524 8.146,-6.419 13.648,-8.685c5.503,-2.265 12.246,-3.398 20.23,-3.398c6.401,0 11.688,0.737 15.86,2.212c4.171,1.474 7.48,3.416 9.925,5.826c2.446,2.409 4.154,5.16 5.125,8.253c0.971,3.093 1.457,6.294 1.457,9.602c0,1.727 -0.126,3.435 -0.378,5.125c-0.252,1.69 -0.593,3.362 -1.025,5.017l-21.578,0c0,-1.438 -0.126,-2.949 -0.377,-4.531c-0.252,-1.583 -0.702,-3.039 -1.349,-4.37c-0.647,-1.33 -1.546,-2.427 -2.697,-3.29c-1.151,-0.864 -2.626,-1.295 -4.424,-1.295c-2.517,0 -4.783,0.953 -6.797,2.859c-2.014,1.906 -3.704,4.351 -5.071,7.336c-1.366,2.985 -2.409,6.312 -3.129,9.98c-0.719,3.669 -1.078,7.229 -1.078,10.681c0,1.942 0.179,3.831 0.539,5.665c0.36,1.834 0.899,3.452 1.618,4.855c0.72,1.402 1.583,2.535 2.59,3.398c1.007,0.863 2.158,1.295 3.452,1.295c1.295,0 2.733,-0.162 4.316,-0.486c1.582,-0.323 3.183,-1.025 4.801,-2.103c1.618,-1.079 3.201,-2.608 4.747,-4.586c1.547,-1.978 2.967,-4.585 4.262,-7.822l24.487,0Zm-374.267,38.409l-35.172,0l11.22,-108.322c-4.244,0.072 -8.056,0.72 -11.436,1.942c-3.381,1.223 -6.689,3.453 -9.926,6.69c2.517,1.51 4.477,3.56 5.88,6.149c1.402,2.59 2.104,5.179 2.104,7.768c0,2.302 -0.468,4.496 -1.403,6.582c-0.935,2.086 -2.194,3.92 -3.776,5.502c-1.582,1.582 -3.434,2.823 -5.556,3.722c-2.122,0.899 -4.334,1.349 -6.636,1.349c-2.661,0 -5.034,-0.54 -7.12,-1.618c-2.086,-1.079 -3.866,-2.536 -5.341,-4.37c-1.474,-1.834 -2.589,-3.902 -3.344,-6.204c-0.756,-2.301 -1.133,-4.711 -1.133,-7.228c0,-4.604 0.971,-8.937 2.913,-13.001c1.942,-4.064 4.621,-7.786 8.038,-11.167c3.416,-3.38 7.462,-6.401 12.137,-9.062c4.675,-2.662 9.71,-4.927 15.105,-6.798c5.394,-1.87 11.041,-3.29 16.939,-4.261c5.898,-0.971 11.796,-1.457 17.694,-1.457c2.085,0 4.171,0.072 6.257,0.216c2.086,0.144 4.172,0.324 6.258,0.54l-5.179,50.492l35.28,0l4.963,-50.169l34.849,0l-13.594,132.705l-34.741,0l5.718,-56.426l-35.172,0l-5.826,56.426Zm240.811,-65.921c-0.288,-0.575 -0.792,-1.294 -1.511,-2.158c-0.719,-0.863 -1.87,-1.294 -3.452,-1.294c-1.942,0 -3.794,0.791 -5.557,2.373c-1.762,1.583 -3.308,3.776 -4.639,6.582c-1.331,2.805 -2.391,6.185 -3.183,10.141c-0.791,3.956 -1.186,8.308 -1.186,13.055c0,3.093 0.215,5.52 0.647,7.283c0.431,1.762 0.971,3.074 1.618,3.938c0.648,0.863 1.331,1.384 2.05,1.564c0.719,0.18 1.367,0.27 1.942,0.27c1.726,0 3.579,-0.54 5.557,-1.619c1.978,-1.079 3.434,-2.913 4.369,-5.502l3.345,-34.633Zm266.596,15.968c2.158,-0.144 4.208,-0.629 6.15,-1.457c1.942,-0.827 3.722,-1.906 5.341,-3.236c1.618,-1.331 3.003,-2.841 4.153,-4.532c1.151,-1.69 1.978,-3.47 2.482,-5.34c-0.36,-2.23 -0.827,-4.118 -1.403,-5.664c-0.575,-1.547 -1.762,-2.32 -3.56,-2.32c-1.654,0 -3.183,0.665 -4.585,1.996c-1.403,1.331 -2.662,3.075 -3.777,5.233c-1.114,2.157 -2.085,4.585 -2.913,7.282c-0.827,2.697 -1.456,5.377 -1.888,8.038Zm-376.644,-67.324c0,4.532 -1.619,8.164 -4.855,10.897c-3.237,2.734 -7.697,4.1 -13.379,4.1c-5.61,0 -10.034,-1.366 -13.27,-4.1c-3.237,-2.733 -4.855,-6.365 -4.855,-10.897c0,-4.459 1.618,-8.073 4.855,-10.842c3.236,-2.77 7.66,-4.154 13.27,-4.154c5.682,0 10.142,1.384 13.379,4.154c3.236,2.769 4.855,6.383 4.855,10.842Zm52.758,-0.107c0,4.459 -1.636,8.055 -4.909,10.789c-3.273,2.733 -7.714,4.099 -13.324,4.099c-5.611,0 -10.034,-1.366 -13.271,-4.099c-3.237,-2.734 -4.855,-6.33 -4.855,-10.789c0,-4.532 1.618,-8.164 4.855,-10.897c3.237,-2.734 7.66,-4.1 13.271,-4.1c5.61,0 10.051,1.366 13.324,4.1c3.273,2.733 4.909,6.365 4.909,10.897Z" style="fill:#003d4a;fill-rule:nonzero;"/><path d="M1017.9,136.879c0,5.478 -1.649,9.903 -4.947,13.274c-3.298,3.371 -7.819,5.057 -13.564,5.057c-5.745,0 -10.248,-1.686 -13.511,-5.057c-3.262,-3.371 -4.893,-7.796 -4.893,-13.274c0,-5.563 1.631,-10.051 4.893,-13.464c3.263,-3.414 7.766,-5.12 13.511,-5.12c5.745,0 10.266,1.706 13.564,5.12c3.298,3.413 4.947,7.901 4.947,13.464Zm191.785,-18.95c0.034,-0.641 0.08,-1.257 0.137,-1.846c0.144,-1.475 0.324,-2.967 0.54,-4.477l8.631,-84.263l33.122,-2.805l-3.452,33.446l12.947,0l-2.266,23.197l-12.947,0l-3.668,35.194c0,0.143 -0.018,0.341 -0.054,0.592c-0.036,0.251 -0.054,0.7 -0.054,1.346c0.36,1.794 1.205,3.462 2.536,5.005c1.33,1.542 3.038,2.313 5.124,2.313c4.244,0 8.182,-0.755 11.814,-2.265c3.633,-1.511 6.887,-3.417 9.764,-5.719c2.877,-2.301 7.93,20.337 2.428,23.371c-5.503,3.034 -11.526,5.418 -18.072,7.151c-6.545,1.734 -13.522,2.601 -20.93,2.601c-4.82,0 -8.865,-0.684 -12.138,-2.05c-3.273,-1.367 -5.916,-3.327 -7.93,-5.88c-1.311,-1.663 -2.379,-3.561 -3.202,-5.696c-3.169,2.473 -6.615,4.714 -10.338,6.721c-4.136,2.229 -8.667,4.046 -13.594,5.448c-4.927,1.403 -10.34,2.104 -16.238,2.104c-6.473,0 -12.461,-0.665 -17.964,-1.996c-5.502,-1.331 -10.267,-3.488 -14.295,-6.473c-3.418,-2.534 -6.215,-5.689 -8.39,-9.465c-0.304,0.463 -0.618,0.92 -0.943,1.373c-2.193,3.057 -4.747,5.7 -7.66,7.93c-2.913,2.23 -6.058,3.992 -9.437,5.286c-3.378,1.295 -6.788,1.942 -10.229,1.942c-5.162,0 -9.392,-0.719 -12.69,-2.157c-3.298,-1.439 -5.914,-3.309 -7.85,-5.611c-1.935,-2.301 -3.261,-4.927 -3.978,-7.876c-0.717,-2.949 -1.076,-5.934 -1.076,-8.955c0,-2.661 0.175,-5.43 0.523,-8.307c0.348,-2.877 0.732,-5.682 1.15,-8.415c0.418,-2.734 0.801,-5.359 1.149,-7.876c0.349,-2.518 0.523,-4.784 0.523,-6.798c0,-1.582 -0.09,-3.11 -0.27,-4.585c-0.18,-1.474 -0.485,-2.805 -0.917,-3.992c-0.431,-1.187 -1.025,-2.14 -1.78,-2.859c-0.755,-0.719 -1.708,-1.079 -2.859,-1.079c-1.798,0 -3.399,0.791 -4.801,2.374c-1.403,1.582 -2.536,3.524 -3.399,5.826l-5.826,58.692l-33.662,0l9.063,-91.491l33.77,-1.402l-0.971,9.062c3.093,-2.877 6.383,-4.927 9.872,-6.149c3.488,-1.223 6.959,-1.834 10.411,-1.834c8.559,0 14.781,2.373 18.665,7.12c3.884,4.747 5.826,11.257 5.826,19.528c0,2.949 -0.198,5.988 -0.593,9.117c-0.396,3.129 -0.827,6.186 -1.295,9.171c-0.467,2.985 -0.899,5.79 -1.295,8.415c-0.395,2.626 -0.593,4.909 -0.593,6.851c0,1.87 0.432,3.543 1.295,5.017c0.863,1.475 2.445,2.212 4.747,2.212c1.582,0 2.949,-0.198 4.1,-0.593c1.151,-0.396 2.122,-0.971 2.913,-1.727c0.791,-0.755 1.492,-1.69 2.104,-2.805c0.484,-0.882 0.979,-1.866 1.485,-2.952c-0.019,-0.607 -0.029,-1.224 -0.029,-1.849c0,-4.675 0.342,-9.35 1.025,-14.026c0.683,-4.675 1.798,-9.134 3.345,-13.378c1.546,-4.244 3.524,-8.218 5.934,-11.922c2.409,-3.704 5.34,-6.905 8.793,-9.602c3.452,-2.697 7.444,-4.819 11.976,-6.366c4.531,-1.546 9.674,-2.319 15.428,-2.319c6.689,0 12.299,0.629 16.831,1.888c4.531,1.258 8.181,3.147 10.951,5.664c2.769,2.517 4.747,5.646 5.933,9.386c1.187,3.741 1.781,8.056 1.781,12.947c0,2.518 -0.792,4.855 -2.374,7.013c-1.582,2.158 -3.668,4.118 -6.258,5.88c-2.589,1.762 -5.574,3.363 -8.954,4.801c-3.381,1.439 -6.833,2.697 -10.358,3.776c-3.524,1.079 -7.013,1.96 -10.465,2.644c-3.453,0.683 -6.582,1.169 -9.387,1.456c-0.072,0.504 -0.126,0.971 -0.162,1.403c-0.035,0.431 -0.053,0.863 -0.053,1.294c0,2.518 0.395,4.676 1.186,6.474c0.792,1.798 1.852,3.273 3.183,4.423c1.331,1.151 2.895,1.996 4.693,2.536c1.798,0.539 3.705,0.809 5.719,0.809c4.243,0 8.091,-0.378 11.544,-1.133c3.452,-0.755 6.599,-1.69 9.44,-2.805c2.841,-1.115 5.431,-2.356 7.768,-3.722c1.956,-1.143 3.798,-2.236 5.527,-3.279Zm-48.197,-19.486c2.157,-0.144 4.207,-0.629 6.149,-1.457c1.942,-0.827 3.723,-1.906 5.341,-3.236c1.618,-1.331 3.003,-2.841 4.154,-4.532c1.151,-1.69 1.978,-3.47 2.481,-5.34c-0.359,-2.23 -0.827,-4.118 -1.402,-5.664c-0.576,-1.547 -1.763,-2.32 -3.561,-2.32c-1.654,0 -3.182,0.665 -4.585,1.996c-1.403,1.331 -2.661,3.075 -3.776,5.233c-1.115,2.157 -2.086,4.585 -2.913,7.282c-0.827,2.697 -1.457,5.377 -1.888,8.038Z" style="fill:url(#_Linear1);fill-rule:nonzero;"/></g><path d="M499.929,218.123c0,0 63.187,-68.886 312.462,-18.067c0,0 75.893,13.701 125.238,-18.077c18.257,-11.758 56.944,13.705 19.919,44.052c-0.279,0.229 -41.358,30.027 -136.453,20.409c-30.767,-3.112 -81.908,-21.433 -114.803,-26.611c-10.878,-1.712 -99.27,-29.913 -206.363,-1.706Z" style="fill:#fbcc01;"/></g><path d="M167.496,167.084c-9.163,17.546 -13.971,26.11 -16.339,31.861c-20.532,49.854 27.92,27.719 28.271,27.539l0,-0.075c34.964,-17.977 58.905,-54.419 58.905,-96.409c0,-59.791 -48.542,-108.333 -108.333,-108.333c-59.791,0 -108.333,48.542 -108.333,108.333c0,55.065 41.173,100.59 94.386,107.442l0,0.026c5.766,0.242 10.372,4.999 10.372,10.824c0,5.824 -4.606,10.581 -10.372,10.823l0,0.144c-65.201,-6.967 -116.053,-62.221 -116.053,-129.259c0,-71.749 58.251,-130 130,-130c71.749,0 130,58.251 130,130c0,50.117 -28.421,93.649 -70.012,115.342l0.013,0.167c-7.236,4.124 -32.978,15.957 -52.562,2.614c-14.394,-9.807 -20.342,-29.121 -6.829,-57.473c2.21,-4.635 6.926,-13.723 12.018,-23.383l-34.347,0.254l-13.671,23.402c0,0 -5.756,8.874 -2.17,12.691c2.73,2.906 -12.37,13.251 -20.359,-1.064c0,0 -5.111,-6.92 3.475,-21.288l7.93,-13.558l-4.477,0.033c0,0 -10.133,0.197 -15.214,3.7c-3.846,2.652 -13.358,5.609 -13.783,-5.76c-0.198,-5.31 3.688,-17.911 30.086,-18.673l15.597,-0.174l41.226,-70.485c0,0 5.358,-7.623 3.843,-13.486c-1.254,-4.854 -6.569,-6.265 -11.39,-5.204c0,0 -24.84,0.808 -51.927,35.789c0,0 -13.692,17.83 -0.861,25.657c0,0 7.241,5.164 14.519,-3.259c3.338,-3.863 16.34,13.945 -2.516,22.411c0,0 -16.294,6.291 -27.804,-6.082c0,0 -30.265,-26.522 12.088,-66.571c12.917,-12.214 45.394,-34.924 73.062,-25.096c0,0 28.606,10.528 11.397,43.055l-36.801,62.993l33.301,-0.372c4.361,-8.157 7.544,-14.062 7.544,-14.062c0,0 7.013,-14.488 9.122,-24.347c1.024,-4.792 24.834,4.591 9.223,35.504c-0.45,0.891 -0.894,1.768 -1.331,2.631l8.536,-0.095c0,0 6.982,0.385 14.136,-5.871c5.706,-4.99 12.885,25.405 -18.917,27.036l-14.649,0.108Z" style="fill:url(#_Linear2);"/><circle cx="200.431" cy="95.436" r="10" style="fill:#fccc00;"/><defs><linearGradient id="_Linear1" x1="0" y1="0" x2="1" y2="0" gradientUnits="userSpaceOnUse" gradientTransform="matrix(295.759,0,0,130.672,980.989,89.8739)"><stop offset="0" style="stop-color:#229781;stop-opacity:1"/><stop offset="1" style="stop-color:#60d4a0;stop-opacity:1"/></linearGradient><linearGradient id="_Linear2" x1="0" y1="0" x2="1" y2="0" gradientUnits="userSpaceOnUse" gradientTransform="matrix(260,0,0,259.259,0,129.63)"><stop offset="0" style="stop-color:#209580;stop-opacity:1"/><stop offset="1" style="stop-color:#64d8a2;stop-opacity:1"/></linearGradient></defs></svg>