<svg class="site-img svelte-1nq7v2e" viewBox="0 0 1280 260" width="156" clip-rule="evenodd" fill-rule="evenodd" stroke-linejoin="round" stroke-miterlimit="1.414"><g fill-rule="nonzero"><path d="M485.791 115.321l6.04-58.2 34.093-1.726-9.602 94.08c-.791 8.128-2.266 14.799-4.423 20.014-2.158 5.214-4.801 9.332-7.93 12.353-3.129 3.021-6.671 5.125-10.627 6.312-3.956 1.186-8.2 1.78-12.731 1.78-2.878 0-5.485-.234-7.823-.701-2.337-.468-4.459-1.079-6.365-1.835a40.046 40.046 0 01-5.287-2.535 181.491 181.491 0 01-4.693-2.805l5.179-17.91c.288.144.827.324 1.618.54.791.215 1.672.449 2.644.701a51.16 51.16 0 002.805.647c.899.18 1.6.27 2.104.27 3.092 0 5.61-1.277 7.552-3.83 1.942-2.554 3.272-7.175 3.992-13.864l.932-8.98a46.18 46.18 0 01-2.982 2.345c-3.237 2.337-6.797 4.207-10.681 5.61-3.884 1.402-7.84 2.104-11.868 2.104-4.46 0-8.254-.666-11.383-1.996-3.128-1.331-5.718-3.237-7.768-5.718-2.05-2.482-3.542-5.431-4.477-8.847-.935-3.417-1.403-7.247-1.403-11.491 0-2.014.09-3.902.27-5.664.18-1.762.27-3.65.27-5.664l5.61-53.406 33.985-1.402-6.473 60.958c0 1.079.09 2.103.27 3.074.18.971.503 1.835.971 2.59.467.755 1.115 1.348 1.942 1.78.827.432 1.852.647 3.075.647 1.438 0 2.859-.287 4.261-.863a16.112 16.112 0 003.884-2.265 16.239 16.239 0 003.021-3.075c.827-1.115 1.421-2.212 1.78-3.291l.218.263zm234.224-5.334l9.498-91.491 34.093-2.805-7.552 72.071 25.139-32.259 30.532 1.726a2024.401 2024.401 0 00-12.892 14.565 2048.87 2048.87 0 01-12.893 14.565c1.51 1.942 2.643 4.226 3.398 6.851a72.614 72.614 0 011.834 8.146c.468 2.805.953 5.592 1.457 8.361.503 2.77 1.241 5.251 2.212 7.445.971 2.194 2.301 3.974 3.992 5.34 1.69 1.367 3.974 2.05 6.851 2.05 1.582 0 3.021-.287 4.315-.863a15.091 15.091 0 003.561-2.212 14.545 14.545 0 002.751-3.02 21.31 21.31 0 001.888-3.399l.118.143c-.007-.368-.01-.739-.01-1.114 0-4.675.341-9.35 1.025-14.026.683-4.675 1.798-9.134 3.344-13.378a58.584 58.584 0 015.934-11.922 39.28 39.28 0 018.793-9.602c3.453-2.697 7.445-4.819 11.976-6.366 4.532-1.546 9.674-2.319 15.428-2.319 6.69 0 12.3.629 16.831 1.888 4.532 1.258 8.182 3.147 10.951 5.664s4.747 5.646 5.934 9.386c1.187 3.741 1.78 8.056 1.78 12.947 0 2.518-.791 4.855-2.373 7.013-1.583 2.158-3.669 4.118-6.258 5.88-2.589 1.762-5.574 3.363-8.955 4.801a104.598 104.598 0 01-10.357 3.776 106.375 106.375 0 01-10.466 2.644c-3.452.683-6.581 1.169-9.386 1.456a24.14 24.14 0 00-.162 1.403c-.036.431-.054.863-.054 1.294 0 2.518.396 4.676 1.187 6.474s1.852 3.273 3.183 4.423c1.33 1.151 2.895 1.996 4.693 2.536 1.798.539 3.704.809 5.718.809 4.244 0 8.092-.378 11.544-1.133 3.453-.755 6.6-1.69 9.441-2.805 2.841-1.115 5.43-2.356 7.768-3.722a468.885 468.885 0 005.526-3.279c.035-.641.081-1.256.138-1.846.144-1.475.324-2.967.54-4.477l8.631-84.263 33.122-2.805-3.452 33.446h12.946l-2.265 23.197h-12.947l-3.668 35.194c0 .143-.018.341-.054.592-.036.251-.054.7-.054 1.346.359 1.794 1.204 3.462 2.535 5.005 1.331 1.542 3.039 2.313 5.125 2.313 4.244 0 8.182-.755 11.814-2.265 3.632-1.511 6.887-3.417 9.764-5.719 2.877-2.301 7.93 20.337 2.427 23.371-5.502 3.034-11.526 5.418-18.071 7.151-6.545 1.734-13.522 2.601-20.931 2.601-4.819 0-8.865-.684-12.137-2.05-3.273-1.367-5.916-3.327-7.93-5.88-1.312-1.663-2.379-3.562-3.202-5.696-3.169 2.473-6.616 4.714-10.339 6.721-4.135 2.229-8.667 4.046-13.594 5.448-4.927 1.403-10.339 2.104-16.237 2.104-6.474 0-12.462-.665-17.964-1.996-5.502-1.331-10.267-3.488-14.295-6.473-3.553-2.633-6.434-5.937-8.644-9.913a36.65 36.65 0 01-1.336 1.929c-2.266 3.057-4.855 5.7-7.768 7.93-2.913 2.229-6.024 3.974-9.333 5.232-3.308 1.259-6.617 1.888-9.926 1.888-5.97 0-10.879-1.078-14.727-3.236-3.848-2.158-6.905-4.945-9.17-8.362-2.266-3.416-3.866-7.264-4.802-11.544a71.451 71.451 0 01-1.618-12.893c.216-1.079.324-2.158.324-3.237l-11.437 13.271-2.697 24.383h-34.093l2.248-21.653c-2.659 4.949-6.087 9.145-10.286 12.59-4.208 3.453-9.135 6.114-14.781 7.984-5.646 1.87-11.886 2.805-18.719 2.805-8.415 0-15.158-1.115-20.229-3.344-5.071-2.23-8.955-5.125-11.652-8.685a29.256 29.256 0 01-2.889-4.647c-.184.237-.372.473-.564.709-2.409 2.949-5.233 5.592-8.469 7.93a44.145 44.145 0 01-10.52 5.61c-3.776 1.402-7.534 2.104-11.274 2.104-12.012 0-19.348-4.748-22.01-14.242a47.355 47.355 0 01-1.726 2.805 16.298 16.298 0 01-2.05 2.482 78.013 78.013 0 01-2.589 2.427c-1.151 1.043-2.59 2.068-4.316 3.075-1.726 1.007-3.758 1.87-6.096 2.59-2.337.719-5.052 1.078-8.145 1.078-4.891 0-9.099-.863-12.623-2.589-3.525-1.726-6.42-4.082-8.686-7.067-2.265-2.985-3.938-6.491-5.016-10.519-1.079-4.028-1.619-8.379-1.619-13.055 0-1.151.036-2.895.108-5.232.072-2.338.288-5.017.647-8.038.36-3.021.864-6.258 1.511-9.71a78.38 78.38 0 012.697-10.358 60.884 60.884 0 014.316-9.926c1.726-3.164 3.794-5.97 6.203-8.415 2.41-2.446 5.233-4.388 8.47-5.826 3.236-1.439 6.941-2.158 11.112-2.158 2.158 0 4.208.234 6.15.701a36.506 36.506 0 015.395 1.727 38.012 38.012 0 014.531 2.211 44.637 44.637 0 013.56 2.266l.971-8.415 33.339 1.51-5.719 56.534a27.286 27.286 0 00-.161 3.885c.036 1.366.233 2.607.593 3.722.36 1.115.971 2.032 1.834 2.751.863.719 2.05 1.079 3.56 1.079 1.439 0 2.86-.324 4.262-.971a18.08 18.08 0 003.884-2.428 16.012 16.012 0 003.021-3.236c.772-1.108 1.34-2.168 1.705-3.182a63.812 63.812 0 01-.033-2.051c0-2.014.09-4.801.27-8.362.18-3.56.755-7.462 1.726-11.706.971-4.243 2.464-8.541 4.478-12.893 2.014-4.351 4.819-8.289 8.415-11.814 3.597-3.524 8.146-6.419 13.648-8.685 5.503-2.265 12.246-3.398 20.23-3.398 6.401 0 11.688.737 15.86 2.212 4.171 1.474 7.48 3.416 9.925 5.826 2.446 2.409 4.154 5.16 5.125 8.253a31.87 31.87 0 011.457 9.602c0 1.727-.126 3.435-.378 5.125a47.701 47.701 0 01-1.025 5.017h-21.578c0-1.438-.126-2.949-.377-4.531-.252-1.583-.702-3.039-1.349-4.37a8.924 8.924 0 00-2.697-3.29c-1.151-.864-2.626-1.295-4.424-1.295-2.517 0-4.783.953-6.797 2.859-2.014 1.906-3.704 4.351-5.071 7.336-1.366 2.985-2.409 6.312-3.129 9.98-.719 3.669-1.078 7.229-1.078 10.681 0 1.942.179 3.831.539 5.665.36 1.834.899 3.452 1.618 4.855.72 1.402 1.583 2.535 2.59 3.398s2.158 1.295 3.452 1.295c1.295 0 2.733-.162 4.316-.486 1.582-.323 3.183-1.025 4.801-2.103 1.618-1.079 3.201-2.608 4.747-4.586 1.547-1.978 2.967-4.585 4.262-7.822h24.487zm-374.267 38.409h-35.172l11.22-108.322c-4.244.072-8.056.72-11.436 1.942-3.381 1.223-6.689 3.453-9.926 6.69a15.849 15.849 0 015.88 6.149c1.402 2.59 2.104 5.179 2.104 7.768 0 2.302-.468 4.496-1.403 6.582a18.285 18.285 0 01-3.776 5.502 17.337 17.337 0 01-5.556 3.722 16.844 16.844 0 01-6.636 1.349c-2.661 0-5.034-.54-7.12-1.618a16.526 16.526 0 01-5.341-4.37 19.525 19.525 0 01-3.344-6.204c-.756-2.301-1.133-4.711-1.133-7.228 0-4.604.971-8.937 2.913-13.001 1.942-4.064 4.621-7.786 8.038-11.167 3.416-3.38 7.462-6.401 12.137-9.062 4.675-2.662 9.71-4.927 15.105-6.798 5.394-1.87 11.041-3.29 16.939-4.261a108.751 108.751 0 0117.694-1.457c2.085 0 4.171.072 6.257.216 2.086.144 4.172.324 6.258.54l-5.179 50.492h35.28l4.963-50.169h34.849l-13.594 132.705h-34.741l5.718-56.426h-35.172l-5.826 56.426zm240.811-65.921c-.288-.575-.792-1.294-1.511-2.158-.719-.863-1.87-1.294-3.452-1.294-1.942 0-3.794.791-5.557 2.373-1.762 1.583-3.308 3.776-4.639 6.582-1.331 2.805-2.391 6.185-3.183 10.141-.791 3.956-1.186 8.308-1.186 13.055 0 3.093.215 5.52.647 7.283.431 1.762.971 3.074 1.618 3.938.648.863 1.331 1.384 2.05 1.564.719.18 1.367.27 1.942.27 1.726 0 3.579-.54 5.557-1.619 1.978-1.079 3.434-2.913 4.369-5.502l3.345-34.633zm266.596 15.968a18.746 18.746 0 006.15-1.457 21.865 21.865 0 005.341-3.236 21.521 21.521 0 004.153-4.532c1.151-1.69 1.978-3.47 2.482-5.34-.36-2.23-.827-4.118-1.403-5.664-.575-1.547-1.762-2.32-3.56-2.32-1.654 0-3.183.665-4.585 1.996-1.403 1.331-2.662 3.075-3.777 5.233-1.114 2.157-2.085 4.585-2.913 7.282a60.452 60.452 0 00-1.888 8.038zM476.511 31.119c0 4.532-1.619 8.164-4.855 10.897-3.237 2.734-7.697 4.1-13.379 4.1-5.61 0-10.034-1.366-13.27-4.1-3.237-2.733-4.855-6.365-4.855-10.897 0-4.459 1.618-8.073 4.855-10.842 3.236-2.77 7.66-4.154 13.27-4.154 5.682 0 10.142 1.384 13.379 4.154 3.236 2.769 4.855 6.383 4.855 10.842zm52.758-.107c0 4.459-1.636 8.055-4.909 10.789-3.273 2.733-7.714 4.099-13.324 4.099-5.611 0-10.034-1.366-13.271-4.099-3.237-2.734-4.855-6.33-4.855-10.789 0-4.532 1.618-8.164 4.855-10.897 3.237-2.734 7.66-4.1 13.271-4.1 5.61 0 10.051 1.366 13.324 4.1 3.273 2.733 4.909 6.365 4.909 10.897z" fill="#1f344a"></path><path d="M1017.9 136.879c0 5.478-1.649 9.903-4.947 13.274-3.298 3.371-7.819 5.057-13.564 5.057s-10.248-1.686-13.511-5.057c-3.262-3.371-4.893-7.796-4.893-13.274 0-5.563 1.631-10.051 4.893-13.464 3.263-3.414 7.766-5.12 13.511-5.12 5.745 0 10.266 1.706 13.564 5.12 3.298 3.413 4.947 7.901 4.947 13.464zm191.785-18.95c.034-.641.08-1.257.137-1.846.144-1.475.324-2.967.54-4.477l8.631-84.263 33.122-2.805-3.452 33.446h12.947l-2.266 23.197h-12.947l-3.668 35.194c0 .143-.018.341-.054.592-.036.251-.054.7-.054 1.346.36 1.794 1.205 3.462 2.536 5.005 1.33 1.542 3.038 2.313 5.124 2.313 4.244 0 8.182-.755 11.814-2.265 3.633-1.511 6.887-3.417 9.764-5.719 2.877-2.301 7.93 20.337 2.428 23.371-5.503 3.034-11.526 5.418-18.072 7.151-6.545 1.734-13.522 2.601-20.93 2.601-4.82 0-8.865-.684-12.138-2.05-3.273-1.367-5.916-3.327-7.93-5.88-1.311-1.663-2.379-3.561-3.202-5.696-3.169 2.473-6.615 4.714-10.338 6.721-4.136 2.229-8.667 4.046-13.594 5.448-4.927 1.403-10.34 2.104-16.238 2.104-6.473 0-12.461-.665-17.964-1.996-5.502-1.331-10.267-3.488-14.295-6.473-3.418-2.534-6.215-5.689-8.39-9.465-.304.463-.618.92-.943 1.373a37.295 37.295 0 01-7.66 7.93 37.539 37.539 0 01-9.437 5.286c-3.378 1.295-6.788 1.942-10.229 1.942-5.162 0-9.392-.719-12.69-2.157-3.298-1.439-5.914-3.309-7.85-5.611a19.073 19.073 0 01-3.978-7.876 37.772 37.772 0 01-1.076-8.955c0-2.661.175-5.43.523-8.307.348-2.877.732-5.682 1.15-8.415.418-2.734.801-5.359 1.149-7.876.349-2.518.523-4.784.523-6.798 0-1.582-.09-3.11-.27-4.585-.18-1.474-.485-2.805-.917-3.992-.431-1.187-1.025-2.14-1.78-2.859-.755-.719-1.708-1.079-2.859-1.079-1.798 0-3.399.791-4.801 2.374-1.403 1.582-2.536 3.524-3.399 5.826l-5.826 58.692h-33.662l9.063-91.491 33.77-1.402-.971 9.062c3.093-2.877 6.383-4.927 9.872-6.149 3.488-1.223 6.959-1.834 10.411-1.834 8.559 0 14.781 2.373 18.665 7.12 3.884 4.747 5.826 11.257 5.826 19.528 0 2.949-.198 5.988-.593 9.117a312.743 312.743 0 01-1.295 9.171c-.467 2.985-.899 5.79-1.295 8.415-.395 2.626-.593 4.909-.593 6.851 0 1.87.432 3.543 1.295 5.017.863 1.475 2.445 2.212 4.747 2.212 1.582 0 2.949-.198 4.1-.593 1.151-.396 2.122-.971 2.913-1.727.791-.755 1.492-1.69 2.104-2.805.484-.882.979-1.866 1.485-2.952a59.123 59.123 0 01-.029-1.849c0-4.675.342-9.35 1.025-14.026.683-4.675 1.798-9.134 3.345-13.378a58.482 58.482 0 015.934-11.922 39.24 39.24 0 018.793-9.602c3.452-2.697 7.444-4.819 11.976-6.366 4.531-1.546 9.674-2.319 15.428-2.319 6.689 0 12.299.629 16.831 1.888 4.531 1.258 8.181 3.147 10.951 5.664 2.769 2.517 4.747 5.646 5.933 9.386 1.187 3.741 1.781 8.056 1.781 12.947 0 2.518-.792 4.855-2.374 7.013-1.582 2.158-3.668 4.118-6.258 5.88-2.589 1.762-5.574 3.363-8.954 4.801a104.616 104.616 0 01-10.358 3.776 106.357 106.357 0 01-10.465 2.644c-3.453.683-6.582 1.169-9.387 1.456a24.14 24.14 0 00-.162 1.403c-.035.431-.053.863-.053 1.294 0 2.518.395 4.676 1.186 6.474.792 1.798 1.852 3.273 3.183 4.423 1.331 1.151 2.895 1.996 4.693 2.536 1.798.539 3.705.809 5.719.809 4.243 0 8.091-.378 11.544-1.133 3.452-.755 6.599-1.69 9.44-2.805 2.841-1.115 5.431-2.356 7.768-3.722a461.29 461.29 0 005.527-3.279zm-48.197-19.486a18.747 18.747 0 006.149-1.457 21.847 21.847 0 005.341-3.236 21.553 21.553 0 004.154-4.532c1.151-1.69 1.978-3.47 2.481-5.34-.359-2.23-.827-4.118-1.402-5.664-.576-1.547-1.763-2.32-3.561-2.32-1.654 0-3.182.665-4.585 1.996s-2.661 3.075-3.776 5.233c-1.115 2.157-2.086 4.585-2.913 7.282a60.296 60.296 0 00-1.888 8.038z" fill="url(#logo-hijacket_svg___Linear1)"></path></g><path d="M499.929 218.123s63.187-68.886 312.462-18.067c0 0 75.893 13.701 125.238-18.077 18.257-11.758 56.944 13.705 19.919 44.052-.279.229-41.358 30.027-136.453 20.409-30.767-3.112-81.908-21.433-114.803-26.611-10.878-1.712-99.27-29.913-206.363-1.706z" fill="#fbcc01"></path><path d="M167.496 167.084c-9.163 17.546-13.971 26.11-16.339 31.861-20.532 49.854 27.92 27.719 28.271 27.539v-.075c34.964-17.977 58.905-54.419 58.905-96.409 0-59.791-48.542-108.333-108.333-108.333S21.667 70.209 21.667 130c0 55.065 41.173 100.59 94.386 107.442v.026c5.766.242 10.372 4.999 10.372 10.824 0 5.824-4.606 10.581-10.372 10.823v.144C50.852 252.292 0 197.038 0 130 0 58.251 58.251 0 130 0s130 58.251 130 130c0 50.117-28.421 93.649-70.012 115.342l.013.167c-7.236 4.124-32.978 15.957-52.562 2.614-14.394-9.807-20.342-29.121-6.829-57.473 2.21-4.635 6.926-13.723 12.018-23.383l-34.347.254-13.671 23.402s-5.756 8.874-2.17 12.691c2.73 2.906-12.37 13.251-20.359-1.064 0 0-5.111-6.92 3.475-21.288l7.93-13.558-4.477.033s-10.133.197-15.214 3.7c-3.846 2.652-13.358 5.609-13.783-5.76-.198-5.31 3.688-17.911 30.086-18.673l15.597-.174 41.226-70.485s5.358-7.623 3.843-13.486c-1.254-4.854-6.569-6.265-11.39-5.204 0 0-24.84.808-51.927 35.789 0 0-13.692 17.83-.861 25.657 0 0 7.241 5.164 14.519-3.259 3.338-3.863 16.34 13.945-2.516 22.411 0 0-16.294 6.291-27.804-6.082 0 0-30.265-26.522 12.088-66.571 12.917-12.214 45.394-34.924 73.062-25.096 0 0 28.606 10.528 11.397 43.055l-36.801 62.993 33.301-.372a5181.322 5181.322 0 017.544-14.062s7.013-14.488 9.122-24.347c1.024-4.792 24.834 4.591 9.223 35.504l-1.331 2.631 8.536-.095s6.982.385 14.136-5.871c5.706-4.99 12.885 25.405-18.917 27.036l-14.649.108z" fill="url(#logo-hijacket_svg___Linear2)"></path><circle cx="200.431" cy="95.436" fill="#fccc00" r="10"></circle><defs><linearGradient gradientTransform="matrix(295.759 0 0 130.672 980.989 89.874)" gradientUnits="userSpaceOnUse" id="logo-hijacket_svg___Linear1" x1="0" x2="1" y1="0" y2="0"><stop offset="0" stop-color="#229781"></stop><stop offset="1" stop-color="#60d4a0"></stop></linearGradient><linearGradient gradientTransform="matrix(260 0 0 259.259 0 129.63)" gradientUnits="userSpaceOnUse" id="logo-hijacket_svg___Linear2" x1="0" x2="1" y1="0" y2="0" data-v-7e89c252=""><stop offset="0" stop-color="#209580"></stop><stop offset="1" stop-color="#64d8a2"></stop></linearGradient></defs></svg>