<?xml version="1.0" encoding="utf-8"?>
<!-- Generator: Adobe Illustrator 23.0.1, SVG Export Plug-In . SVG Version: 6.00 Build 0)  -->
<svg version="1.1" id="Layer_1" xmlns="http://www.w3.org/2000/svg" xmlns:xlink="http://www.w3.org/1999/xlink" x="0px" y="0px"
	 viewBox="0 0 226 66" style="enable-background:new 0 0 226 66;" xml:space="preserve">
<style type="text/css">
	.st0{fill:#201A17;}
	.st1{fill:#FFFFFF;}
	.st2{fill:#0095E3;}
	.st3{fill:#EE0001;}
	.st4{fill:#231F20;}
	.st5{fill:#FF5F00;}
	.st6{fill:#EB001B;}
	.st7{fill:#F79E1B;}
	.st8{fill:#004686;}
	.st9{fill:#EF9B11;}
	.st10{fill:#57A1D9;}
	.st11{fill:#070403;}
	.st12{fill:#080403;}
	.st13{fill:#5AA2D8;}
	.st14{fill:#003399;}
	.st15{fill-rule:evenodd;clip-rule:evenodd;fill:#F15A23;}
	.st16{fill-rule:evenodd;clip-rule:evenodd;fill:#005E6A;}
	.st17{fill:#003D79;}
	.st18{fill:url(#path19788_2_);}
	.st19{fill:#00529C;}
	.st20{fill:#4D3490;}
	.st21{fill-rule:evenodd;clip-rule:evenodd;fill:#2E3192;}
	.st22{fill-rule:evenodd;clip-rule:evenodd;fill:#FFFFFF;}
	.st23{fill-rule:evenodd;clip-rule:evenodd;fill:#0056A7;}
	.st24{fill-rule:evenodd;clip-rule:evenodd;fill:#F58220;}
	.st25{fill-rule:evenodd;clip-rule:evenodd;fill:#F0F0F0;}
	.st26{fill-rule:evenodd;clip-rule:evenodd;fill:#FECF22;}
	.st27{fill-rule:evenodd;clip-rule:evenodd;fill:#006AB4;}
	.st28{fill-rule:evenodd;clip-rule:evenodd;fill:#D61627;}
	.st29{fill-rule:evenodd;clip-rule:evenodd;fill:#E6E6E6;}
	.st30{fill-rule:evenodd;clip-rule:evenodd;fill:#3064A9;}
	.st31{fill:#1756C2;}
	.st32{fill:#EFCF00;}
	.st33{fill:#D60F27;}
	.st34{fill-rule:evenodd;clip-rule:evenodd;fill:#E82E2D;}
	.st35{fill-rule:evenodd;clip-rule:evenodd;fill:#1560AA;}
	.st36{fill-rule:evenodd;clip-rule:evenodd;fill:#1161AB;}
	.st37{fill-rule:evenodd;clip-rule:evenodd;fill:#1260AA;}
	.st38{fill-rule:evenodd;clip-rule:evenodd;fill:#E92D2E;}
	.st39{fill:#009EC2;}
	.st40{fill:#F37D30;}
	.st41{fill:#8DC640;}
	.st42{fill-rule:evenodd;clip-rule:evenodd;fill:#F08519;}
	.st43{fill-rule:evenodd;clip-rule:evenodd;fill:#B6B6B7;}
	.st44{fill:#F6931F;}
	.st45{fill:#FCFEFF;}
	.st46{fill:#EA1F25;}
	.st47{fill:#283990;}
	.st48{fill:#283B82;}
	.st49{fill:#469BDB;}
	.st50{fill-rule:evenodd;clip-rule:evenodd;fill:#00463A;}
	.st51{fill-rule:evenodd;clip-rule:evenodd;fill:#B7D442;}
	.st52{fill-rule:evenodd;clip-rule:evenodd;fill:#70BF4F;}
	.st53{fill-rule:evenodd;clip-rule:evenodd;fill:#17B253;}
	.st54{fill-rule:evenodd;clip-rule:evenodd;fill:#6FBF5B;}
</style>
<g id="layer3_1_">
	<path id="path3242_1_" class="st15" d="M0,23l19.1,24L0,62.8V23L0,23z"/>
	<path id="path3244_1_" class="st15" d="M7.7,62.8l14.3-12l9.9,12H7.7z"/>
	<path id="path3248_1_" class="st15" d="M0,10.1l5,6.3l20.4,25.5l6.6-5.3c0,0-5.5-6.5-9.2-13.7C15.6,8.8,20.7,0,20.7,0H0V10.1z"/>
	<path id="path3250_1_" class="st15" d="M28.3,45.9l6.7-5.6c0,0,6.4,8.5,13.9,10.5c9.8,2.6,14.1-3.8,14.1-3.8v15.8H41.6l4.8-4.2
		c0,0-2.5,1.7-8.7-2.6C34.1,53.5,28.3,45.9,28.3,45.9z"/>
	<path id="path3262_1_" class="st15" d="M29,0c0,0-2.2,2.9-0.6,10.1c1.6,7.7,8.2,15.8,8.1,15.6c0,0,0.4-8.1,5.1-12.8
		C51.7,2.8,63.1,8.8,63.1,8.8V0L29,0z"/>
	<path id="path3298_1_" class="st15" d="M63.1,19.5c0,0-6.4-5.5-11.9-5.5c-7.1,0-11,6.1-11,10.6c0,6.5,3.1,10.1,6.2,13.2
		c4.5,4.5,9.9,9.3,16.7,5.4C63.1,35.8,63.1,19.5,63.1,19.5z"/>
	<path id="path3249_1_" class="st16" d="M135.7,0.7h15c0,0,13.3,20.2,19.9,28.5c6.5,8.3,13.6,17.8,13.6,17.8s0-27.5,0-41.8
		c0-1.8-4.7-4.5-4.7-4.5h17.3c0,0-5.7,2.3-5.7,4.5c0,17.8,0,60.8,0,60.8s-5.5-3-11.7-10.2c-7-8.1-31.7-40.7-31.7-40.7s0,30.8,0,42.3
		c0,2.2,4.7,5.4,4.7,5.4h-16.8c0,0,4.6-3.3,4.6-5.4c0-15.4,0-37.9,0-52.2C140.3,3.3,135.7,0.7,135.7,0.7z"/>
	<path id="path3267_1_" class="st16" d="M206.6,0.7h19.3c0,0-5.2,2.5-5.2,4.5c0,14.3,0,38,0,52.2c0,2.3,5.2,5.4,5.2,5.4h-19.3
		c0,0,4.8-3.3,4.8-5.4c0-17,0-37.9,0-52.2C211.4,3.2,206.6,0.7,206.6,0.7z"/>
	<path id="path3283_1_" class="st16" d="M78.9,0.7c0,0,5,2.5,5,4.5c0,14.3,0,35.1,0,52.2c0,2.2-5,5.4-5,5.4l0,0c0,0,25,0,28.6,0
		c1.8,0,21.8-3.3,21.8-18.7s-15.6-16.9-15.6-16.9s9.5-2.6,9.5-13.2c0-11.4-13.9-13.3-15.7-13.3C103.8,0.7,78.9,0.7,78.9,0.7z
		 M94.1,26.2V6.8c0,0,8.3,0,11.6,0c1.8,0,8,2.1,8,9.8c0,6.4-6.3,9.6-8,9.6C101.7,26.2,94.1,26.2,94.1,26.2z M94.1,31.3
		c0,0,11.6,0,13.4,0c1.8,0,12.3,2.7,12.3,11.9c0,9.3-10.5,12.6-12.3,12.6c-1.8,0-13.4,0-13.4,0V31.3z"/>
</g>
</svg>
