<svg xmlns="http://www.w3.org/2000/svg" viewBox="0 0 420.13 66"><defs><style>.a{fill:#76111c;}.b{fill:#fff;}.c{fill:#eb2428;}</style></defs><title>Payment Gateway</title><path class="a" d="M122.27,53.41a22.77,22.77,0,0,1-9.55,1.89,24.89,24.89,0,0,1-9.09-1.62A20.94,20.94,0,0,1,91.59,42a23.32,23.32,0,0,1-1.74-9.13,23.28,23.28,0,0,1,1.77-9.24,20.5,20.5,0,0,1,4.89-7.06,21.61,21.61,0,0,1,7.33-4.47,26.27,26.27,0,0,1,17.92,0,17,17,0,0,1,7.06,4.65l-7,7a8.71,8.71,0,0,0-3.78-2.95,12.55,12.55,0,0,0-4.81-1,12.16,12.16,0,0,0-5,1,11.78,11.78,0,0,0-3.87,2.74,12.44,12.44,0,0,0-2.52,4.11,14.51,14.51,0,0,0-.91,5.19,15,15,0,0,0,.91,5.29,12.3,12.3,0,0,0,2.49,4.11,11.21,11.21,0,0,0,3.81,2.67,12.11,12.11,0,0,0,4.86,1,11.32,11.32,0,0,0,5.35-1.2,10.35,10.35,0,0,0,3.66-3.12l7.15,6.73A20.26,20.26,0,0,1,122.27,53.41Z"/><path class="a" d="M133,54.16V11.65h10.33V54.16Z"/><path class="a" d="M189.94,54.16l.24-30.08H190L179,54.16h-7.21L161,24.08h-.18l.24,30.08h-9.67V11.65H166l9.68,27.26h.24l9.26-27.26H200V54.16Z"/><path class="a" d="M241.22,41.79a11.52,11.52,0,0,1-1.38,5.86,11,11,0,0,1-3.66,3.81,15.92,15.92,0,0,1-5.2,2.07,28.13,28.13,0,0,1-6,.63H208.08V11.65H225a26,26,0,0,1,5,.51,15,15,0,0,1,4.69,1.74,9.9,9.9,0,0,1,3.42,3.33,9.89,9.89,0,0,1,1.32,5.35,8.84,8.84,0,0,1-1.92,5.85,10.71,10.71,0,0,1-5,3.33v.12A11.64,11.64,0,0,1,235.91,33a9.66,9.66,0,0,1,4.62,5A9.87,9.87,0,0,1,241.22,41.79ZM229.57,24a3.43,3.43,0,0,0-1.65-3.16,9.67,9.67,0,0,0-4.89-1H218v8.77h5.53A7.43,7.43,0,0,0,228,27.41,4,4,0,0,0,229.57,24ZM231,40.83a3.75,3.75,0,0,0-2-3.66,11.59,11.59,0,0,0-5.28-1H218v9.72h5.77a15.5,15.5,0,0,0,2.49-.21,7.83,7.83,0,0,0,2.34-.75A4.26,4.26,0,0,0,231,40.83Z"/><path class="a" d="M263,11.65h12.67a23.89,23.89,0,0,1,4.86.51,13.27,13.27,0,0,1,4.42,1.74,9.59,9.59,0,0,1,3.18,3.33,10.35,10.35,0,0,1,1.23,5.29,8.9,8.9,0,0,1-2.05,5.85,9.65,9.65,0,0,1-5.5,3.27v.12A11.19,11.19,0,0,1,288.64,35a10,10,0,0,1,2.72,7.41A10.47,10.47,0,0,1,287.11,51a15.15,15.15,0,0,1-5,2.37,23.89,23.89,0,0,1-6.59.84H263Zm4.32,18.61H276a14.23,14.23,0,0,0,3.15-.36,8.75,8.75,0,0,0,2.91-1.23,6.61,6.61,0,0,0,2.14-2.31,7.13,7.13,0,0,0,.81-3.54,6.87,6.87,0,0,0-.81-3.46,6.75,6.75,0,0,0-2.2-2.31,9.4,9.4,0,0,0-3.24-1.29,19.27,19.27,0,0,0-4-.39h-7.51Zm0,20.18h8.05A21.58,21.58,0,0,0,279.8,50a11.61,11.61,0,0,0,3.73-1.44A7.7,7.7,0,0,0,286.08,46a7.24,7.24,0,0,0,1-3.81,7.24,7.24,0,0,0-2.85-6.27c-1.91-1.39-4.6-2.07-8.08-2.07h-8.83Z"/><path class="a" d="M300.19,54.16h-4.75l18.38-42.51H318l18.26,42.51h-4.81L326.79,43h-22ZM306.43,39h18.74L315.8,16.45Z"/><path class="a" d="M372,47.86h.12V11.65h4.33V54.16H371L346.3,17.59h-.12V54.16h-4.32V11.65h5.4Z"/><path class="a" d="M391.4,30.74h.06l20.23-19.09h6.19L396.44,30.92l22.64,23.24h-6.37L391.46,31.52h-.06V54.16h-4.32V11.65h4.32Z"/><rect class="a" x="0.22" width="70.72" height="65.81"/><polygon class="b" points="63.23 32.9 26.29 32.9 7.92 11.76 44.86 11.76 63.23 32.9"/><polygon class="c" points="63.23 32.9 26.29 32.9 7.92 54.05 44.86 54.05 63.23 32.9"/></svg>