<svg data-v-4a9a7b08="" aria-hidden="true" data-prefix="fal" data-icon="user-headset" viewBox="0 0 448 512" width="36" height="36" class="user-headset_svg__svg-inline--fa user-headset_svg__fa-user-headset user-headset_svg__fa-w-14 user-headset_svg__fa-2x {{ .class }}"><path data-v-4a9a7b08="" fill="currentColor" d="M320 352h-4.7c-12.16 0-24 2.9-35.5 6.8a173.76 173.76 0 01-111.64 0c-11.48-3.9-23.29-6.78-35.42-6.78H128A128 128 0 000 480a32 32 0 0032 32h384a32 32 0 0032-32 128 128 0 00-128-128zM32 480a96.1 96.1 0 0196-96h4.74c6.92 0 14.92 1.62 25.16 5.09a205.75 205.75 0 00132.16 0c10.31-3.49 18.33-5.11 25.24-5.11h4.7a96.1 96.1 0 0196 96zm16-256a16 16 0 0016-16v-16c0-88.22 71.78-160 160-160s160 71.78 160 160v16a80.09 80.09 0 01-80 80h-32a32 32 0 00-32-32h-32a32 32 0 000 64h96a112.14 112.14 0 00112-112v-16C416 86.12 329.88 0 224 0S32 86.12 32 192v16a16 16 0 0016 16zM224 96a95.57 95.57 0 0171.23 159.76c0 .09.13.15.18.24H304a47.89 47.89 0 0040.55-22.58C349 220.36 352 206.58 352 192a128 128 0 00-256 0c0 40.42 19.1 76 48.35 99.47-.06-1.17-.35-2.28-.35-3.47a63.25 63.25 0 018.93-32A95.58 95.58 0 01224 96z"></path></svg>