<svg xmlns="http://www.w3.org/2000/svg" viewBox="0 0 512.0004 512.0016"><path d="M476.1584 231.364c20.2646 3.085 35.8418 20.626 35.8408 41.7373v85.5117c0 4.4277-3.5898 8.0166-8.0166 8.0166h-26.2031c.002.1777.0137.3545.0137.5342.0 27.9961-22.7773 50.7715-50.7715 50.7715-27.9951.0-50.7725-22.7754-50.7725-50.7715.0-.1787.0117-.3564.0137-.5342h-180.67c.002.1777.0146.3545.0146.5342.0 27.9961-22.7773 50.7715-50.7725 50.7715s-50.7715-22.7754-50.7715-50.7715c0-.1787.0117-.3564.0137-.5342h-43.3037c-9.1367.0-16.5684-7.4316-16.5684-16.5684v-17.6367h-26.1885c-4.4277.0-8.0166-3.5889-8.0166-8.0166.0-4.4287 3.5898-8.0176 8.0166-8.0176h76.96c4.4287.0 8.0176 3.5889 8.0176 8.0176.0 4.4277-3.5898 8.0166-8.0176 8.0166h-34.7383v17.6367c0 .2959.2383.5342.5342.5342h46.0801c6.8857-19.8828 25.7871-34.2051 47.9824-34.2051s41.0957 14.3223 47.9824 34.2051h166.327v-60.3906c0-4.4277 3.5908-8.0176 8.0176-8.0176 4.4277.0 8.0166 3.5908 8.0166 8.0176v60.3926h3.8603c6.8848-19.8828 25.7871-34.2051 47.9824-34.2051 22.1943.0 41.0957 14.3223 47.9814 34.2051h20.9619v-35.2725h-9.0859c-13.8506.0-25.1191-11.2686-25.1191-25.1191v-17.1025c0-4.4277 3.5898-8.0166 8.0175-8.0166h24.9277c-3.3945-10.5254-13.2754-18.1631-24.9121-18.1709-.0068.0-.0137.001-.0214 9e-4s-.0137-.002-.0215-.0019h-94.5693v9.0879c0 4.4277-3.5898 8.0166-8.0166 8.0166-4.4277.0-8.0166-3.5898-8.0166-8.0166v-145.372c0-.2949-.2393-.5342-.5342-.5342h-307.841c-.2959.0-.5342.2393-.5342.5342v145.37c0 4.4277-3.5898 8.0166-8.0176 8.0166s-8.0166-3.5898-8.0166-8.0166v-145.37c0-9.1357 7.4316-16.5684 16.5684-16.5684h307.842c9.1357.0 16.5674 7.4326 16.5674 16.5684v17.6377h60.3926c18.5645.0 33.6699 15.1045 33.6699 33.6709v8.5508c0 3.8525-2.7197 7.0684-6.3447 7.8388zM375.1824 144.302v18.1709h78.0293v-.5332c0-9.7256-7.9121-17.6377-17.6367-17.6377h-60.3926zM375.1824 230.882h84.3291l-13.0938-52.376h-71.2354v52.376zM144.83539999999996 401.9053c19.1553.0 34.7393-15.583 34.7393-34.7393s-15.584-34.7393-34.7393-34.7393-34.7393 15.583-34.7393 34.7393 15.584 34.7393 34.7393 34.7393zm282.188.0c19.1543.0 34.7383-15.583 34.7383-34.7393s-15.584-34.7393-34.7383-34.7393c-19.1553.0-34.7393 15.583-34.7393 34.7393s15.584 34.7393 34.7393 34.7393zM495.96739999999994 299.291h-9e-4v-18.1719h-18.1709v9.0859c0 5.0098 4.0762 9.0859 9.0859 9.086h9.0859zm-351.132 51.30669999999998c9.1357.0 16.5684 7.4326 16.5684 16.5684s-7.4326 16.5684-16.5684 16.5684-16.5684-7.4326-16.5684-16.5684 7.4326-16.5684 16.5684-16.5684zm282.188.0c9.1357.0 16.5674 7.4326 16.5674 16.5684s-7.4316 16.5684-16.5674 16.5684c-9.1367.0-16.5684-7.4326-16.5684-16.5684s7.4316-16.5684 16.5684-16.5684zM332.96039999999994 316.394c4.4277.0 8.0166 3.5898 8.0166 8.0176s-3.5898 8.0166-8.0166 8.0166h-119.716c-4.4277.0-8.0176-3.5889-8.0175-8.0166s3.5908-8.0176 8.0175-8.0176h119.716zM127.73339999999993 282.189c4.4268.0 8.0166 3.5889 8.0166 8.0166s-3.5898 8.0166-8.0166 8.0166h-102.614c-4.4277.0-8.0176-3.5889-8.0175-8.0166s3.5908-8.0166 8.0175-8.0166h102.614zm151.038-108.81800000000001c3.1299 3.1309 3.1299 8.206-.0019 11.3379l-76.96 76.96c-1.5635 1.5664-3.6162 2.3477-5.668 2.3477-2.0508.0-4.1025-.7813-5.668-2.3477l-42.7559-42.7559c-3.1309-3.1309-3.1309-8.206.0-11.3369 3.1299-3.1309 8.206-3.1309 11.3369.0l37.0869 37.0869 71.292-71.291c3.1309-3.1309 8.207-3.1309 11.3379-.001z"></path></svg>