<svg class="lock-alt_svg__svg-inline--fa lock-alt_svg__fa-lock-alt lock-alt_svg__fa-w-14 lock-alt_svg__fa-2x {{ .class }}" viewBox="0 0 448 512" aria-hidden="true" data-icon="lock-alt" data-prefix="fas" height="14px" width="14px">
    <path d="M400 224h-24v-72C376 68.2 307.8 0 224 0S72 68.2 72 152v72H48c-26.5 0-48 21.5-48 48v192c0 26.5 21.5 48 48 48h352c26.5 0 48-21.5 48-48V272c0-26.5-21.5-48-48-48zM264 392c0 22.1-17.9 40-40 40s-40-17.9-40-40v-48c0-22.1 17.9-40 40-40s40 17.9 40 40v48zm32-168H152v-72c0-39.7 32.3-72 72-72s72 32.3 72 72v72z" fill="currentColor"></path>
</svg>